<svg width="40" height="40" viewBox="0 0 40 40" fill="none" xmlns="http://www.w3.org/2000/svg">
<circle cx="20" cy="20" r="20" fill="#1D1D1D"/>
<path d="M20.8333 17.5H24.5833L24.1666 19.1666H20.8333V26.6666H19.1666V19.1666H15.8333V17.5H19.1666V15.94C19.1666 14.4541 19.3216 13.915 19.6116 13.3716C19.8958 12.8348 20.3348 12.3958 20.8716 12.1116C21.4149 11.8216 21.9541 11.6666 23.4399 11.6666C23.8749 11.6666 24.2566 11.7083 24.5833 11.7916V13.3333H23.4399C22.3366 13.3333 22.0008 13.3983 21.6583 13.5816C21.4049 13.7166 21.2166 13.905 21.0816 14.1583C20.8983 14.5008 20.8333 14.8366 20.8333 15.94V17.5Z" fill="white"/>
</svg>
