<svg width="40" height="40" viewBox="0 0 40 40" fill="none" xmlns="http://www.w3.org/2000/svg">
<circle cx="20" cy="20" r="20" fill="#1D1D1D"/>
<path d="M24.0035 16.8964C24.5006 16.8964 24.9035 16.4935 24.9035 15.9964C24.9035 15.4994 24.5006 15.0964 24.0035 15.0964C23.5065 15.0964 23.1035 15.4994 23.1035 15.9964C23.1035 16.4935 23.5065 16.8964 24.0035 16.8964Z" fill="white"/>
<path d="M20.0001 16.1487C19.2383 16.1487 18.4937 16.3746 17.8603 16.7978C17.227 17.2209 16.7334 17.8225 16.4419 18.5262C16.1504 19.2299 16.0741 20.0043 16.2227 20.7514C16.3713 21.4985 16.7381 22.1848 17.2767 22.7234C17.8153 23.262 18.5016 23.6288 19.2487 23.7774C19.9958 23.926 20.7702 23.8498 21.4739 23.5583C22.1777 23.2668 22.7792 22.7731 23.2024 22.1398C23.6256 21.5064 23.8514 20.7618 23.8514 20.0001C23.8514 18.9786 23.4457 17.999 22.7234 17.2767C22.0011 16.5545 21.0215 16.1487 20.0001 16.1487ZM20.0001 22.5001C19.5056 22.5001 19.0223 22.3534 18.6111 22.0787C18.2 21.804 17.8796 21.4136 17.6904 20.9568C17.5011 20.4999 17.4516 19.9973 17.5481 19.5123C17.6446 19.0274 17.8827 18.5819 18.2323 18.2323C18.5819 17.8827 19.0274 17.6446 19.5123 17.5481C19.9973 17.4516 20.5 17.5011 20.9568 17.6904C21.4136 17.8796 21.804 18.2 22.0787 18.6111C22.3534 19.0223 22.5001 19.5056 22.5001 20.0001C22.5001 20.6631 22.2367 21.299 21.7678 21.7678C21.299 22.2367 20.6631 22.5001 20.0001 22.5001Z" fill="white"/>
<path d="M20 13.8514C22.0026 13.8514 22.2398 13.859 23.0306 13.8951C23.5062 13.9008 23.9773 13.9881 24.4233 14.1534C24.7467 14.2782 25.0405 14.4693 25.2856 14.7144C25.5308 14.9596 25.7219 15.2533 25.8467 15.5768C26.0119 16.0228 26.0993 16.4938 26.1049 16.9694C26.141 17.7603 26.1487 17.9975 26.1487 20.0001C26.1487 22.0026 26.1411 22.2399 26.1049 23.0307C26.0993 23.5063 26.0119 23.9774 25.8467 24.4234C25.7219 24.7468 25.5308 25.0405 25.2856 25.2857C25.0405 25.5308 24.7467 25.7219 24.4233 25.8467C23.9773 26.012 23.5062 26.0993 23.0306 26.105C22.2399 26.1411 22.0028 26.1487 20 26.1487C17.9973 26.1487 17.7601 26.1411 16.9694 26.105C16.4938 26.0993 16.0227 26.012 15.5767 25.8467C15.2532 25.7219 14.9595 25.5308 14.7144 25.2857C14.4692 25.0405 14.2781 24.7468 14.1533 24.4234C13.9881 23.9774 13.9007 23.5063 13.8951 23.0307C13.859 22.2399 13.8513 22.0026 13.8513 20.0001C13.8513 17.9975 13.8589 17.7603 13.8951 16.9694C13.9007 16.4938 13.9881 16.0228 14.1533 15.5768C14.2781 15.2533 14.4692 14.9596 14.7144 14.7144C14.9595 14.4693 15.2532 14.2781 15.5767 14.1533C16.0227 13.9881 16.4938 13.9007 16.9694 13.8951C17.7602 13.859 17.9974 13.8513 20 13.8513V13.8514ZM20 12.5C17.9631 12.5 17.7077 12.5086 16.9077 12.5451C16.2857 12.5576 15.6702 12.6755 15.0875 12.8938C14.5892 13.0864 14.1367 13.3811 13.7589 13.7589C13.3811 14.1367 13.0864 14.5892 12.8938 15.0875C12.6755 15.6703 12.5576 16.2859 12.5451 16.9081C12.5086 17.7077 12.5 17.9631 12.5 20C12.5 22.0369 12.5086 22.2923 12.5451 23.0922C12.5576 23.7144 12.6755 24.33 12.8938 24.9128C13.0864 25.4111 13.3811 25.8636 13.7589 26.2414C14.1367 26.6192 14.5892 26.9139 15.0875 27.1066C15.6703 27.3249 16.2859 27.4427 16.9081 27.4552C17.7077 27.4914 17.9631 27.5 20 27.5C22.0369 27.5 22.2923 27.4914 23.0922 27.4549C23.7144 27.4424 24.33 27.3245 24.9128 27.1063C25.4111 26.9136 25.8636 26.6189 26.2414 26.2411C26.6192 25.8633 26.9139 25.4108 27.1066 24.9125C27.3248 24.3297 27.4427 23.7141 27.4552 23.0919C27.4914 22.2923 27.5 22.0369 27.5 20C27.5 17.9631 27.4914 17.7077 27.4549 16.9077C27.4424 16.2857 27.3245 15.6702 27.1063 15.0875C26.9135 14.5893 26.6188 14.1368 26.2411 13.7591C25.8633 13.3814 25.4108 13.0867 24.9125 12.8941C24.3297 12.6758 23.7141 12.5579 23.0919 12.5454C22.2923 12.5086 22.0369 12.5 20 12.5Z" fill="white"/>
</svg>
