<svg width="40" height="40" viewBox="0 0 40 40" fill="none" xmlns="http://www.w3.org/2000/svg">
<circle cx="20" cy="20" r="20" fill="#1D1D1D"/>
<path d="M22.7501 14.625C22.1167 14.6249 21.5086 14.8734 21.0567 15.3172C20.6047 15.7609 20.345 16.3643 20.3334 16.9975L20.3101 18.31C20.3087 18.3805 20.2925 18.4499 20.2624 18.5136C20.2323 18.5774 20.1891 18.634 20.1356 18.6799C20.0821 18.7258 20.0195 18.7598 19.9519 18.7798C19.8843 18.7998 19.8133 18.8053 19.7434 18.7958L18.4426 18.6192C16.7309 18.3858 15.0909 17.5975 13.5176 16.2867C13.0193 19.045 13.9926 20.9558 16.3368 22.43L17.7926 23.345C17.8618 23.3885 17.9192 23.4482 17.96 23.5191C18.0007 23.5899 18.0235 23.6696 18.0263 23.7512C18.0291 23.8329 18.0118 23.914 17.976 23.9874C17.9402 24.0609 17.887 24.1244 17.8209 24.1725L16.4943 25.1417C17.2834 25.1908 18.0326 25.1558 18.6543 25.0325C22.5859 24.2475 25.2001 21.2892 25.2001 16.4092C25.2001 16.0108 24.3568 14.625 22.7501 14.625ZM18.6668 16.9667C18.6813 16.1634 18.9325 15.3822 19.3889 14.721C19.8453 14.0598 20.4866 13.5479 21.2325 13.2495C21.9785 12.951 22.7959 12.8792 23.5824 13.0431C24.3689 13.207 25.0896 13.5993 25.6543 14.1708C26.2468 14.1667 26.7509 14.3167 27.8784 13.6333C27.5993 15 27.4618 15.5933 26.8668 16.4092C26.8668 22.7775 22.9526 25.8742 18.9809 26.6667C16.2576 27.21 12.2976 26.3175 11.1626 25.1325C11.7409 25.0875 14.0909 24.835 15.4493 23.8408C14.3001 23.0833 9.72593 20.3917 12.7318 13.155C14.1426 14.8025 15.5734 15.9242 17.0234 16.5192C17.9884 16.915 18.2251 16.9067 18.6676 16.9675L18.6668 16.9667Z" fill="white"/>
</svg>
